<?xml version="1.0" encoding="utf-8"?>
<!-- Generator: Adobe Illustrator 16.0.0, SVG Export Plug-In . SVG Version: 6.00 Build 0)  -->
<!DOCTYPE svg PUBLIC "-//W3C//DTD SVG 1.1//EN" "http://www.w3.org/Graphics/SVG/1.1/DTD/svg11.dtd">
<svg version="1.1" id="Layer_1" xmlns="http://www.w3.org/2000/svg" xmlns:xlink="http://www.w3.org/1999/xlink" x="0px" y="0px"
	 width="100px" height="40px" viewBox="0 0 100 40" enable-background="new 0 0 100 40" xml:space="preserve">
<g>
	<path fill="#FFFFFF" d="M13.175,23.125c-2.36-1.322-0.473-4.629,1.699-3.968c0.19-0.094,0.757-0.189,0.945-0.283
		c0.661-0.189,1.228-0.378,1.889-0.566c1.322-0.472,2.833-0.661,4.251-1.039c2.832-0.567,5.571-1.039,8.403-1.417
		c5.666-0.756,11.428-1.228,17.188-1.511c3.684-0.189,7.366-0.189,11.049-0.283h-0.094c-3.494-1.605-7.461-3.588-9.917-6.61
		c-0.849-1.133-1.227-2.456-0.471-3.778c0.85-1.417,2.737-1.983,4.249-1.133c0,0.095,0,0.095,0.094,0.095
		c3.022,1.417,5.855,3.211,8.973,4.438c3.493,1.322,7.083,2.361,10.766,3.211c7.933,1.888,15.96,3.21,23.987,4.816
		c5.383,1.039,4.061,9.444-1.322,9.351c-16.055-0.191-31.731,4.154-45.425,12.747c-2.361,1.417-5.572,0.473-6.895-1.795
		c-1.417-2.359-0.473-5.381,1.795-6.798c3.872-2.361,7.838-4.439,11.898-6.141c-3.777-0.187-7.46-0.281-11.237-0.281
		c-7.46-0.094-14.826,0.189-22.193,0.851c-1.699,0.095-3.398,0.376-5.1,0.376C16.197,23.503,14.592,23.878,13.175,23.125z"/>
</g>
</svg>
