<?xml version="1.0" encoding="utf-8"?>
<!-- Generator: Adobe Illustrator 16.0.0, SVG Export Plug-In . SVG Version: 6.00 Build 0)  -->
<!DOCTYPE svg PUBLIC "-//W3C//DTD SVG 1.1//EN" "http://www.w3.org/Graphics/SVG/1.1/DTD/svg11.dtd">
<svg version="1.1" id="Layer_1" xmlns="http://www.w3.org/2000/svg" xmlns:xlink="http://www.w3.org/1999/xlink" x="0px" y="0px"
	 width="100px" height="40px" viewBox="0 0 100 40" enable-background="new 0 0 100 40" xml:space="preserve">
<g>
	<path fill="#FFFFFF" d="M81.915,23.406c-1.701,0-3.4-0.281-5.1-0.376c-7.367-0.661-14.733-0.944-22.193-0.851
		c-3.777,0-7.46,0.095-11.238,0.281c4.061,1.701,8.027,3.779,11.899,6.141c2.268,1.417,3.212,4.438,1.795,6.798
		c-1.322,2.268-4.533,3.212-6.895,1.795C36.49,28.602,20.813,24.256,4.758,24.447c-5.383,0.093-6.705-8.312-1.322-9.351
		c8.027-1.605,16.054-2.928,23.987-4.816c3.683-0.85,7.272-1.889,10.766-3.211c3.117-1.228,5.95-3.022,8.972-4.438
		c0.095,0,0.095,0,0.095-0.095c1.511-0.85,3.398-0.283,4.249,1.133c0.756,1.322,0.378,2.645-0.471,3.778
		c-2.457,3.022-6.423,5.005-9.917,6.61h-0.095c3.683,0.094,7.366,0.094,11.049,0.283c5.761,0.284,11.522,0.755,17.188,1.511
		c2.832,0.378,5.571,0.85,8.403,1.417c1.418,0.378,2.929,0.567,4.251,1.039c0.661,0.188,1.228,0.377,1.889,0.566
		c0.188,0.094,0.755,0.189,0.945,0.283c2.172-0.661,4.06,2.646,1.699,3.968C85.031,23.878,83.426,23.503,81.915,23.406z"/>
</g>
</svg>
